<svg width="61" height="61" viewBox="0 0 61 61" fill="none" xmlns="http://www.w3.org/2000/svg">
<path d="M12.3125 44.9346H10.5312C8.64158 44.9346 6.82931 44.1839 5.49311 42.8477C4.15692 41.5115 3.40625 39.6992 3.40625 37.8096V30.6846C3.40625 28.7949 4.15692 26.9826 5.49311 25.6464C6.82931 24.3102 8.64158 23.5596 10.5312 23.5596H12.3125C12.7849 23.5596 13.238 23.7472 13.572 24.0813C13.9061 24.4153 14.0938 24.8684 14.0938 25.3408V43.1533C14.0938 43.6257 13.9061 44.0788 13.572 44.4129C13.238 44.7469 12.7849 44.9346 12.3125 44.9346Z" stroke="#C2BAAE" stroke-width="4" stroke-linecap="round" stroke-linejoin="round"/>
<path d="M49.7188 44.9346H47.9375C47.4651 44.9346 47.012 44.7469 46.678 44.4129C46.3439 44.0788 46.1562 43.6257 46.1562 43.1533V25.3408C46.1562 24.8684 46.3439 24.4153 46.678 24.0813C47.012 23.7472 47.4651 23.5596 47.9375 23.5596H49.7188C51.6084 23.5596 53.4207 24.3102 54.7569 25.6464C56.0931 26.9826 56.8438 28.7949 56.8438 30.6846V37.8096C56.8438 39.6992 56.0931 41.5115 54.7569 42.8477C53.4207 44.1839 51.6084 44.9346 49.7188 44.9346Z" stroke="#C2BAAE" stroke-width="4" stroke-linecap="round" stroke-linejoin="round"/>
<path d="M10.5312 23.5596C10.5312 18.363 12.5956 13.3792 16.2701 9.7047C19.9447 6.03016 24.9284 3.96582 30.125 3.96582C35.3216 3.96582 40.3053 6.03016 43.9799 9.7047C47.6544 13.3792 49.7187 18.363 49.7188 23.5596" stroke="#C2BAAE" stroke-width="4" stroke-linecap="round" stroke-linejoin="round"/>
<path d="M37.25 53.8408H42.5938C44.4834 53.8408 46.2957 53.0902 47.6319 51.754C48.9681 50.4178 49.7188 48.6055 49.7188 46.7158V44.9346" stroke="#C2BAAE" stroke-width="4" stroke-linecap="round" stroke-linejoin="round"/>
<path d="M33.6875 57.4033H30.125C29.1802 57.4033 28.274 57.028 27.6059 56.3599C26.9378 55.6918 26.5625 54.7857 26.5625 53.8408C26.5625 52.896 26.9378 51.9898 27.6059 51.3218C28.274 50.6537 29.1802 50.2783 30.125 50.2783H33.6875C34.6323 50.2783 35.5385 50.6537 36.2066 51.3218C36.8747 51.9898 37.25 52.896 37.25 53.8408C37.25 54.7857 36.8747 55.6918 36.2066 56.3599C35.5385 57.028 34.6323 57.4033 33.6875 57.4033Z" stroke="#C2BAAE" stroke-width="4" stroke-linecap="round" stroke-linejoin="round"/>
</svg>
