<svg width="36" height="37" viewBox="0 0 36 37" fill="none" xmlns="http://www.w3.org/2000/svg">
<path d="M8.71875 6.83105H27.2812C27.2812 6.83105 29.3438 6.83105 29.3438 8.89355V27.4561C29.3438 27.4561 29.3438 29.5186 27.2812 29.5186H8.71875C8.71875 29.5186 6.65625 29.5186 6.65625 27.4561V8.89355C6.65625 8.89355 6.65625 6.83105 8.71875 6.83105Z" stroke="#0D6DEE" stroke-width="3" stroke-linecap="round" stroke-linejoin="round"/>
<path d="M18 6.83105V3.7373" stroke="#0D6DEE" stroke-width="3" stroke-linecap="round" stroke-linejoin="round"/>
<path d="M10.7812 6.83105V3.7373" stroke="#0D6DEE" stroke-width="3" stroke-linecap="round" stroke-linejoin="round"/>
<path d="M25.2188 6.83105V3.7373" stroke="#0D6DEE" stroke-width="3" stroke-linecap="round" stroke-linejoin="round"/>
<path d="M18 32.6123V29.5186" stroke="#0D6DEE" stroke-width="3" stroke-linecap="round" stroke-linejoin="round"/>
<path d="M10.7812 32.6123V29.5186" stroke="#0D6DEE" stroke-width="3" stroke-linecap="round" stroke-linejoin="round"/>
<path d="M25.2188 32.6123V29.5186" stroke="#0D6DEE" stroke-width="3" stroke-linecap="round" stroke-linejoin="round"/>
<path d="M32.4375 18.1748H29.3438" stroke="#0D6DEE" stroke-width="3" stroke-linecap="round" stroke-linejoin="round"/>
<path d="M32.4375 25.3936H29.3438" stroke="#0D6DEE" stroke-width="3" stroke-linecap="round" stroke-linejoin="round"/>
<path d="M32.4375 10.9561H29.3438" stroke="#0D6DEE" stroke-width="3" stroke-linecap="round" stroke-linejoin="round"/>
<path d="M6.65625 18.1748H3.5625" stroke="#0D6DEE" stroke-width="3" stroke-linecap="round" stroke-linejoin="round"/>
<path d="M6.65625 25.3936H3.5625" stroke="#0D6DEE" stroke-width="3" stroke-linecap="round" stroke-linejoin="round"/>
<path d="M6.65625 10.9561H3.5625" stroke="#0D6DEE" stroke-width="3" stroke-linecap="round" stroke-linejoin="round"/>
<path d="M12.8438 10.9561H23.1562C23.1562 10.9561 25.2188 10.9561 25.2188 13.0186V23.3311C25.2188 23.3311 25.2188 25.3936 23.1562 25.3936H12.8438C12.8438 25.3936 10.7812 25.3936 10.7812 23.3311V13.0186C10.7812 13.0186 10.7812 10.9561 12.8438 10.9561Z" stroke="#0D6DEE" stroke-width="3" stroke-linecap="round" stroke-linejoin="round"/>
<path d="M21.0938 21.2686H18" stroke="#0D6DEE" stroke-width="3" stroke-linecap="round" stroke-linejoin="round"/>
</svg>
