<svg width="24" height="24" viewBox="0 0 24 24" fill="none" xmlns="http://www.w3.org/2000/svg">
<path fill-rule="evenodd" clip-rule="evenodd" d="M18.8274 0.15625C19.1859 0.15625 19.4943 0.409994 19.5634 0.761806C19.9426 2.6938 21.4601 4.22101 23.3227 4.59547C23.6797 4.66723 23.9261 4.98136 23.9251 5.3321C23.926 5.68278 23.6796 5.99683 23.3227 6.06858C21.46 6.44305 19.9421 7.97032 19.563 9.90224C19.4939 10.2541 19.1855 10.5078 18.827 10.5078C18.4685 10.5078 18.1601 10.2541 18.0911 9.90224C17.7119 7.97023 16.1944 6.44303 14.3317 6.06858C13.9748 5.99683 13.7284 5.68274 13.7294 5.33203C13.7284 4.98132 13.9748 4.66722 14.3317 4.59547C16.1944 4.22099 17.7123 2.69372 18.0915 0.761806C18.1605 0.409994 18.4689 0.15625 18.8274 0.15625ZM16.5372 5.33203C17.482 5.88997 18.2741 6.69248 18.8271 7.65132C19.3801 6.69245 20.1724 5.88993 21.1173 5.332C20.1724 4.77406 19.3803 3.97155 18.8274 3.01271C18.2743 3.97158 17.4821 4.7741 16.5372 5.33203Z" fill="#42362E"/>
<path fill-rule="evenodd" clip-rule="evenodd" d="M0.0751953 19.9207C0.0751953 17.7532 1.83227 15.9961 3.99975 15.9961C4.91511 15.9961 5.75727 16.3095 6.4248 16.8348V11.0605C6.42464 11.0515 6.42464 11.0425 6.4248 11.0335V8.36841C6.4247 7.76013 6.64038 7.17136 7.03347 6.70715C7.42662 6.24288 7.97172 5.93317 8.57175 5.83308L11.6575 5.31879C12.0661 5.2507 12.4525 5.52671 12.5206 5.93529C12.5887 6.34387 12.3127 6.73029 11.9041 6.79838L8.81856 7.31264C8.56879 7.35433 8.34181 7.48327 8.1782 7.67649C8.01454 7.86975 7.92475 8.11481 7.9248 8.36806V10.1625L15.1896 8.95161C15.5982 8.8835 15.9846 9.15951 16.0527 9.56809C16.1208 9.97667 15.8448 10.3631 15.4362 10.4312L7.9248 11.6832V19.9217C7.9248 19.932 7.9246 19.9423 7.92418 19.9525C7.90711 22.1053 6.15661 23.8452 3.99975 23.8452C1.83228 23.8452 0.0751953 22.0881 0.0751953 19.9207ZM3.99975 17.4961C2.66071 17.4961 1.5752 18.5816 1.5752 19.9207C1.5752 21.2597 2.6607 22.3452 3.99975 22.3452C5.33881 22.3452 6.42431 21.2597 6.42431 19.9207C6.42431 18.5816 5.33879 17.4961 3.99975 17.4961Z" fill="#42362E"/>
<path fill-rule="evenodd" clip-rule="evenodd" d="M15.904 14.0117C13.7366 14.0117 11.9795 15.7688 11.9795 17.9363C11.9795 20.1037 13.7366 21.8608 15.904 21.8608C18.0565 21.8608 19.8043 20.128 19.8283 17.9812C19.8292 17.9667 19.8296 17.952 19.8296 17.9373V12.4656C19.8296 12.0514 19.4938 11.7156 19.0796 11.7156C18.6654 11.7156 18.3296 12.0514 18.3296 12.4656V14.8508C17.662 14.3253 16.8196 14.0117 15.904 14.0117ZM13.4795 17.9363C13.4795 16.5972 14.565 15.5117 15.904 15.5117C17.2431 15.5117 18.3286 16.5972 18.3286 17.9363C18.3286 19.2753 17.2431 20.3608 15.904 20.3608C14.565 20.3608 13.4795 19.2753 13.4795 17.9363Z" fill="#42362E"/>
</svg>
