<svg width="24" height="25" viewBox="0 0 24 25" fill="none" xmlns="http://www.w3.org/2000/svg">
<path fill-rule="evenodd" clip-rule="evenodd" d="M17.0394 5.96268C17.3042 6.22744 17.4466 6.59863 17.4466 6.98051C17.4466 7.08283 17.4256 7.18407 17.3851 7.278L13.8851 15.378C13.8795 15.3908 13.8736 15.4034 13.8674 15.4159C13.6399 15.871 13.1599 16.0005 12.8263 15.9634C12.6359 15.9423 12.4127 15.8635 12.2303 15.6812C12.0554 15.5062 11.9647 15.282 11.949 15.0529L11.4371 11.64L8.02419 11.128C7.79505 11.1124 7.57084 11.0217 7.39592 10.8468C7.21358 10.6644 7.1348 10.4412 7.11365 10.2508C7.07658 9.91719 7.20609 9.43722 7.66115 9.20969C7.67363 9.20345 7.68627 9.19757 7.69907 9.19203L15.7991 5.69204C15.8189 5.68349 15.839 5.67581 15.8594 5.669C16.3318 5.51154 16.7687 5.692 17.0394 5.96268ZM15.7144 7.36266L9.86981 9.88811L12.2078 10.2388C12.5336 10.2877 12.7894 10.5434 12.8383 10.8693L13.189 13.2073L15.7144 7.36266Z" fill="#0D6DEE"/>
<path fill-rule="evenodd" clip-rule="evenodd" d="M3.74658 20.4805C3.74658 22.5947 5.38237 24.2305 7.49658 24.2305H16.9966C19.1108 24.2305 20.7466 22.5947 20.7466 20.4805V3.98047C20.7466 1.86626 19.1108 0.230469 16.9966 0.230469H7.49658C5.38237 0.230469 3.74658 1.86626 3.74658 3.98047V20.4805ZM7.49658 1.73047C6.2108 1.73047 5.24658 2.69468 5.24658 3.98047V18.2305H19.2466V3.98047C19.2466 2.69468 18.2824 1.73047 16.9966 1.73047H7.49658ZM19.2466 19.7305H5.24658V20.4805C5.24658 21.7663 6.2108 22.7305 7.49658 22.7305H16.9966C18.2824 22.7305 19.2466 21.7663 19.2466 20.4805V19.7305Z" fill="#0D6DEE"/>
</svg>
